<svg width="158" height="138" viewBox="0 0 158 138" fill="none" xmlns="http://www.w3.org/2000/svg">
<path d="M8.19043 52.1523C7.92676 51.0977 7.70703 49.9551 7.53125 48.7246L7.00391 45.0332C6.65234 42.3965 6.47656 39.3203 6.47656 35.8047C6.47656 32.2012 7.26758 28.0703 8.84961 23.4121C10.5195 18.7539 13.2002 14.7109 16.8916 11.2832C24.8018 3.90039 37.0186 0.208984 53.542 0.208984L151.496 86.2979C152.375 89.4619 152.814 93.6807 152.814 98.9541C152.814 104.14 151.936 109.105 150.178 113.852C148.42 118.51 145.607 122.553 141.74 125.98C133.479 133.539 121.438 137.318 105.617 137.318L9.11328 52.1523H8.19043ZM153.737 1.52734C156.374 5.57031 157.692 11.1074 157.692 18.1387C157.692 31.1465 152.814 40.8584 143.059 47.2744L90.1924 1.52734H153.737ZM4.36719 136C1.73047 131.957 0.412109 126.42 0.412109 119.389C0.412109 106.469 5.24609 96.8008 14.9141 90.3848L67.9121 136H4.36719Z" fill="black"/>
</svg>
